<svg xmlns="http://www.w3.org/2000/svg" width="3175" height="3174"><rect id="backgroundrect" width="100%" height="100%" x="0" y="0" fill="none" stroke="none"/><defs><linearGradient id="a" x1=".639%" x2="99.361%" y1="0%" y2="100%"><stop offset="0%" stop-color="#FF8F71"/><stop offset="100%" stop-color="#FF3E55"/></linearGradient></defs><g class="currentLayer" style=""><title>Layer 1</title><path fill="#bdd99e" fill-rule="evenodd" d="M2406.4833282470704,1599.8516564941406 v788.41 h-786.766 v-688.41 c0,-55.228 44.772,-100 100,-100 h686.767 zm-1310.445,-1.171 c217.26,0 393.383,176.124 393.383,393.383 v1.645 c0,217.26 -176.123,393.383 -393.383,393.383 S702.6553282470703,2210.966656494141 702.6553282470703,1993.7086564941405 v-1.645 c0,-217.26 176.124,-393.383 393.383,-393.383 zm392.212,-926.418 v688.41 c0,55.23 -44.771,100 -100,100 H701.4843282470704 v-788.41 h786.766 zm918.234,0 v788.41 h-686.767 c-55.228,0 -100,-44.771 -100,-100 v-688.41 h786.767 z" transform="rotate(22, 1553.98, 1530.26)" id="svg_1" class="" fill-opacity="1"/></g></svg>