<svg width="73.98" height="43.2" viewBox="0 0 73.98 43.2" xmlns="http://www.w3.org/2000/svg"><g id="svgGroup" stroke-linecap="round" fill-rule="evenodd" font-size="9pt" stroke="#98deb3" stroke-width="0.25mm" fill="#ffffff" style="stroke:#98deb3;stroke-width:0.25mm;fill:#ffffff"><path d="M 46.02 42.6 L 42.96 42.6 A 1.788 1.788 0 0 1 42.544 42.555 A 1.17 1.17 0 0 1 41.94 42.21 A 1.344 1.344 0 0 1 41.593 41.44 A 1.818 1.818 0 0 1 41.58 41.22 L 41.58 2.04 A 1.961 1.961 0 0 1 41.627 1.601 Q 41.705 1.257 41.919 1.014 A 1.253 1.253 0 0 1 41.94 0.99 Q 42.3 0.601 42.958 0.6 A 1.308 1.308 0 0 1 42.96 0.6 L 46.02 0.6 A 1.805 1.805 0 0 1 46.473 0.654 A 1.281 1.281 0 0 1 47.07 0.99 A 1.302 1.302 0 0 1 47.427 1.681 A 1.887 1.887 0 0 1 47.46 2.04 L 47.46 18.6 L 68.1 18.6 L 68.1 2.04 A 1.805 1.805 0 0 1 68.154 1.588 A 1.281 1.281 0 0 1 68.49 0.99 A 1.317 1.317 0 0 1 69.369 0.604 A 1.76 1.76 0 0 1 69.48 0.6 L 72.54 0.6 A 1.805 1.805 0 0 1 72.993 0.654 A 1.281 1.281 0 0 1 73.59 0.99 A 1.302 1.302 0 0 1 73.947 1.681 A 1.887 1.887 0 0 1 73.98 2.04 L 73.98 41.22 A 1.51 1.51 0 0 1 73.903 41.713 A 1.286 1.286 0 0 1 73.59 42.21 A 1.302 1.302 0 0 1 72.899 42.568 A 1.887 1.887 0 0 1 72.54 42.6 L 69.48 42.6 A 1.51 1.51 0 0 1 68.987 42.523 A 1.286 1.286 0 0 1 68.49 42.21 A 1.317 1.317 0 0 1 68.103 41.331 A 1.76 1.76 0 0 1 68.1 41.22 L 68.1 24 L 47.46 24 L 47.46 41.22 A 1.51 1.51 0 0 1 47.383 41.713 A 1.286 1.286 0 0 1 47.07 42.21 A 1.302 1.302 0 0 1 46.379 42.568 A 1.887 1.887 0 0 1 46.02 42.6 Z M 32.28 14.64 L 28.98 14.64 Q 28.44 14.64 28.05 14.34 A 1.17 1.17 0 0 1 27.779 14.034 Q 27.596 13.746 27.487 13.29 A 4.034 4.034 0 0 1 27.48 13.26 A 15.45 15.45 0 0 0 26.718 10.741 Q 26.184 9.423 25.437 8.458 A 6.741 6.741 0 0 0 23.67 6.84 A 11.049 11.049 0 0 0 20.132 5.439 Q 18.69 5.127 17.024 5.102 A 19.372 19.372 0 0 0 16.74 5.1 Q 11.88 5.1 9.06 7.83 A 8.543 8.543 0 0 0 7.098 10.845 Q 6.571 12.161 6.308 13.805 A 21.612 21.612 0 0 0 6.06 16.56 Q 5.88 21.48 6.06 26.64 A 20.877 20.877 0 0 0 6.385 29.836 Q 6.688 31.464 7.266 32.753 A 8.34 8.34 0 0 0 9.06 35.37 Q 11.88 38.1 16.74 38.1 A 16.292 16.292 0 0 0 19.853 37.819 Q 21.734 37.452 23.246 36.61 A 9.956 9.956 0 0 0 23.67 36.36 Q 26.46 34.62 27.48 29.94 A 3.273 3.273 0 0 1 27.598 29.539 Q 27.762 29.096 28.025 28.88 A 0.964 0.964 0 0 1 28.05 28.86 A 1.444 1.444 0 0 1 28.831 28.566 A 1.837 1.837 0 0 1 28.98 28.56 L 32.28 28.56 A 1.476 1.476 0 0 1 32.826 28.659 A 1.369 1.369 0 0 1 33.21 28.89 Q 33.6 29.22 33.54 29.76 Q 33.42 32.28 32.34 34.68 A 13.181 13.181 0 0 1 29.569 38.636 A 15.251 15.251 0 0 1 29.19 39 A 13.852 13.852 0 0 1 26.192 41.095 A 17.956 17.956 0 0 1 24 42.06 A 18.046 18.046 0 0 1 20.454 42.941 Q 18.713 43.2 16.74 43.2 A 24.697 24.697 0 0 1 12.866 42.913 Q 9.859 42.435 7.59 41.16 Q 3.96 39.12 2.1 35.46 A 18.392 18.392 0 0 1 0.438 30.451 A 24.162 24.162 0 0 1 0.06 26.94 Q 0 24.48 0 21.66 Q 0 18.84 0.06 16.26 A 23.371 23.371 0 0 1 0.629 11.834 A 17.97 17.97 0 0 1 2.1 7.74 Q 3.96 4.08 7.59 2.04 A 14.888 14.888 0 0 1 11.55 0.543 Q 13.308 0.136 15.348 0.034 A 27.964 27.964 0 0 1 16.74 0 Q 20.739 0 23.786 1.064 A 15.671 15.671 0 0 1 24 1.14 Q 27.12 2.28 29.19 4.2 A 13.942 13.942 0 0 1 31.612 7.123 A 12.561 12.561 0 0 1 32.34 8.49 Q 33.42 10.86 33.54 13.38 A 1.276 1.276 0 0 1 33.548 13.519 Q 33.549 13.946 33.241 14.251 A 1.258 1.258 0 0 1 33.21 14.28 Q 32.82 14.64 32.28 14.64 Z" vector-effect="non-scaling-stroke"/></g></svg>